<svg xmlns="http://www.w3.org/2000/svg" fill="none" viewBox="0 0 24 24" id="Appium--Streamline-Svg-Logos" height="24" width="24">
  <desc>
    Appium Streamline Icon: https://streamlinehq.com
  </desc>
  <path fill="#662d91" d="M0.27708 11.210275c2.277845 5.232775 8.05772 6.11025 14.95597 1.674925 3.181675 2.94475 3.97435 6.43585 1.3195 9.950025 -1.400175 0.588975 -2.938225 0.91465 -4.552575 0.91465C5.510675 23.749875 0.25 18.4893 0.25 11.9999c0 -0.265375 0.00973 -0.52855 0.02708 -0.789625Zm10.745595 -2.271475C12.05125 4.65235 14.923475 2.1936675 19.4384 2.90435 22.070225 5.0592 23.75 8.333225 23.75 11.99995c0 4.626075 -2.67375 8.62695 -6.5598 10.543475 3.53015 -5.028975 0.64535 -10.334825 -6.167525 -13.604625ZM12.000025 0.25C14.518475 0.25 16.851575 1.042665 18.76425 2.3916175 12.342975 1.6451275 9.310675 6.997525 9.734225 14.3889 5.561875 15.668625 2.1628225 14.7257 0.366545 10.345525 1.170775 4.639625 6.07235 0.25 12.000025 0.25Z" stroke-width="0.25"></path>
</svg>