<?xml version="1.0" encoding="UTF-8"?>
<svg version="1.1" xmlns="http://www.w3.org/2000/svg" width="512" height="512">
<path d="M0 0 C2.3723607 0.00859462 4.74237261 -0.02048432 7.11450195 -0.05200195 C8.63989187 -0.05361246 10.165286 -0.05303932 11.69067383 -0.05004883 C12.39078079 -0.06128281 13.09088776 -0.07251678 13.81221008 -0.08409119 C18.84380637 -0.01308729 21.65735623 1.32006035 25.54614258 4.44604492 C29.59589533 9.04306156 30.67891033 11.33872855 30.54614258 17.44604492 C31.14040039 17.39963867 31.7346582 17.35323242 32.34692383 17.30541992 C42.48319767 16.86402697 50.72977491 19.94345696 58.47973633 26.47338867 C66.63826065 34.261772 71.59645216 42.928381 71.92256165 54.40408325 C71.94658571 57.98281719 71.88085655 61.55597804 71.79614258 65.13354492 C71.77602866 66.62505715 71.75778661 68.11659585 71.74145508 69.6081543 C71.69788839 73.22134494 71.62913778 76.83351931 71.54614258 80.44604492 C72.31394043 80.4125293 73.08173828 80.37901367 73.87280273 80.34448242 C76.54614258 80.44604492 76.54614258 80.44604492 79.31958008 82.07104492 C83.42113454 86.63905067 82.25814908 93.72681772 82.17114258 99.44604492 C82.19047852 100.71706055 82.20981445 101.98807617 82.22973633 103.29760742 C82.17529852 113.64079152 82.17529852 113.64079152 79.25708008 116.82104492 C76.54614258 118.44604492 76.54614258 118.44604492 72.54614258 118.44604492 C76.57983588 140.09269719 84.18385141 160.23499297 101.98364258 174.38354492 C102.49926758 174.73416992 103.01489258 175.08479492 103.54614258 175.44604492 C103.1141672 179.8606226 100.12309648 182.32451344 97.10864258 185.25854492 C96.5651416 185.79189453 96.02164063 186.32524414 95.46166992 186.87475586 C85.27651516 196.67562137 72.58134155 204.07958435 59.54614258 209.44604492 C64.93391451 211.55527298 70.24773 213.25272931 75.85864258 214.64526367 C77.44609546 215.05394126 79.03332809 215.46347514 80.62036133 215.8737793 C83.06840602 216.50268611 85.51725311 217.12637929 87.97045898 217.73486328 C107.9220849 222.70557357 126.06272509 230.33649901 137.54614258 248.44604492 C144.30425351 261.13506152 145.8484161 271.65489184 145.85253906 285.80102539 C145.86016873 287.46083953 145.86859761 289.12065016 145.87776184 290.78045654 C145.89963058 295.27225346 145.90849512 299.76398234 145.91358829 304.25582647 C145.91724005 307.0660987 145.92348427 309.87635332 145.93058968 312.6866188 C145.95505498 322.50178047 145.96813033 332.31688948 145.97167969 342.13208008 C145.97531555 351.26396078 146.00522202 360.39550552 146.04708427 369.52728355 C146.08182806 377.38317409 146.09722881 385.23895346 146.09792572 393.09492028 C146.09871696 397.78007425 146.10738541 402.46488538 146.13592339 407.14995956 C146.16217526 411.55785719 146.16426984 415.96512937 146.14826775 420.37306976 C146.14645907 421.98467249 146.15309126 423.59631179 146.16908646 425.20783615 C146.25407135 434.33088775 145.74044475 441.58841118 140.54614258 449.44604492 C139.98926758 450.35354492 139.43239258 451.26104492 138.85864258 452.19604492 C132.73009568 458.15895542 122.29376557 464.44604492 113.54614258 464.44604492 C113.54614258 473.68604492 113.54614258 482.92604492 113.54614258 492.44604492 C40.94614258 492.44604492 -31.65385742 492.44604492 -106.45385742 492.44604492 C-106.45385742 483.20604492 -106.45385742 473.96604492 -106.45385742 464.44604492 C-108.10385742 464.11604492 -109.75385742 463.78604492 -111.45385742 463.44604492 C-123.92818381 458.83565061 -131.17491437 454.51306904 -137.45385742 442.44604492 C-138.60023264 439.00691927 -138.58846093 436.34783303 -138.60102844 432.71890259 C-138.60470513 432.03130777 -138.60838182 431.34371295 -138.61216992 430.63528192 C-138.62320401 428.32561336 -138.62705023 426.0159898 -138.63085938 423.70629883 C-138.63712458 422.05209205 -138.64377143 420.39788669 -138.65077209 418.74368286 C-138.67182018 413.30333436 -138.68217987 407.86298557 -138.69213867 402.42260742 C-138.69618691 400.54729574 -138.70030385 398.6719842 -138.70448875 396.79667282 C-138.72354746 387.97977425 -138.73777321 379.16288406 -138.74610072 370.34596884 C-138.75585543 360.18657924 -138.78212577 350.02740854 -138.82260162 339.86809599 C-138.85284199 332.00632443 -138.86757736 324.14461529 -138.87088174 316.28278673 C-138.87322455 311.59247462 -138.88208327 306.90239617 -138.90734291 302.21214676 C-138.93076549 297.79125488 -138.93480038 293.37074808 -138.92458153 288.94981003 C-138.92408937 287.33624739 -138.93031419 285.72266488 -138.94413757 284.10916138 C-139.08949872 266.12008993 -134.38593307 250.96904295 -121.79370117 237.72729492 C-108.30077773 224.57225771 -91.89277365 220.61739459 -74.14135742 216.07104492 C-72.03234352 215.52137496 -69.92361675 214.97060203 -67.81518555 214.41870117 C-62.69798183 213.0817558 -57.5774091 211.75844046 -52.45385742 210.44604492 C-55.75972599 207.88148425 -59.02870846 206.15317951 -62.82885742 204.38354492 C-73.54590802 199.16324955 -82.8331453 192.35585205 -91.39135742 184.07104492 C-91.91810059 183.5712915 -92.44484375 183.07153809 -92.98754883 182.55664062 C-96.42431698 179.08293689 -96.42431698 179.08293689 -96.55151367 176.34057617 C-95.07330186 173.78921415 -93.25207643 172.35634137 -90.95385742 170.50854492 C-75.38550776 156.87235848 -69.13473658 138.19933432 -65.45385742 118.44604492 C-66.19635742 118.36354492 -66.93885742 118.28104492 -67.70385742 118.19604492 C-71.11403115 117.26599754 -72.26474763 116.20587769 -74.45385742 113.44604492 C-75.28804245 108.84065634 -75.05637332 104.18098954 -75.01635742 99.50854492 C-75.05212891 97.59525391 -75.05212891 97.59525391 -75.08862305 95.64331055 C-75.07223963 85.22892158 -75.07223963 85.22892158 -72.23120117 82.06713867 C-69.21209716 80.3049331 -67.85048636 80.29811744 -64.45385742 80.44604492 C-64.48527832 79.13953979 -64.48527832 79.13953979 -64.51733398 77.80664062 C-64.58636594 74.50949077 -64.63606431 71.21313154 -64.67358398 67.91552734 C-64.69344137 66.50068892 -64.72053709 65.08592962 -64.75561523 63.67138672 C-65.17466235 46.31174388 -60.71309444 31.41970573 -48.67651367 18.64086914 C-34.9182275 4.51833879 -19.27491795 -0.1066469 0 0 Z " fill="#FEB0AA" transform="translate(252.453857421875,9.553955078125)"/>
<path d="M0 0 C66 0 132 0 200 0 C200 46.2 200 92.4 200 140 C203.3 140 206.6 140 210 140 C210 149.9 210 159.8 210 170 C137.4 170 64.8 170 -10 170 C-10 160.1 -10 150.2 -10 140 C-6.7 140 -3.4 140 0 140 C0 93.8 0 47.6 0 0 Z " fill="#6D82B6" transform="translate(156,332)"/>
<path d="M0 0 C2.3723607 0.00859462 4.74237261 -0.02048432 7.11450195 -0.05200195 C8.63989187 -0.05361246 10.165286 -0.05303932 11.69067383 -0.05004883 C12.39078079 -0.06128281 13.09088776 -0.07251678 13.81221008 -0.08409119 C18.84380637 -0.01308729 21.65735623 1.32006035 25.54614258 4.44604492 C29.59589533 9.04306156 30.67891033 11.33872855 30.54614258 17.44604492 C31.4375293 17.37643555 31.4375293 17.37643555 32.34692383 17.30541992 C42.48319767 16.86402697 50.72977491 19.94345696 58.47973633 26.47338867 C66.63826065 34.261772 71.59645216 42.928381 71.92256165 54.40408325 C71.94658571 57.98281719 71.88085655 61.55597804 71.79614258 65.13354492 C71.77602866 66.62505715 71.75778661 68.11659585 71.74145508 69.6081543 C71.69788839 73.22134494 71.62913778 76.83351931 71.54614258 80.44604492 C72.31394043 80.4125293 73.08173828 80.37901367 73.87280273 80.34448242 C76.54614258 80.44604492 76.54614258 80.44604492 79.31958008 82.07104492 C83.42113454 86.63905067 82.25814908 93.72681772 82.17114258 99.44604492 C82.19047852 100.71706055 82.20981445 101.98807617 82.22973633 103.29760742 C82.17529852 113.64079152 82.17529852 113.64079152 79.25708008 116.82104492 C76.54614258 118.44604492 76.54614258 118.44604492 72.54614258 118.44604492 C76.57983588 140.09269719 84.18385141 160.23499297 101.98364258 174.38354492 C102.49926758 174.73416992 103.01489258 175.08479492 103.54614258 175.44604492 C103.1141672 179.8606226 100.12309648 182.32451344 97.10864258 185.25854492 C96.5651416 185.79189453 96.02164063 186.32524414 95.46166992 186.87475586 C85.71215018 196.256423 69.42257393 208.56278683 55.70239258 209.78979492 C50.96138003 209.59759171 46.56623418 208.30796177 42.04614258 206.94604492 C41.2237207 206.70756836 40.40129883 206.4690918 39.55395508 206.22338867 C37.54856876 205.64042753 35.54693783 205.04457341 33.54614258 204.44604492 C33.54614258 199.82604492 33.54614258 195.20604492 33.54614258 190.44604492 C32.10239258 191.06479492 30.65864258 191.68354492 29.17114258 192.32104492 C13.34310758 198.54629718 -6.39098855 198.59114859 -22.26635742 192.32104492 C-23.64823242 191.70229492 -25.03010742 191.08354492 -26.45385742 190.44604492 C-26.45385742 195.06604492 -26.45385742 199.68604492 -26.45385742 204.44604492 C-48.68093986 211.9060812 -48.68093986 211.9060812 -56.89135742 208.44604492 C-59.12108369 207.18459544 -61.30804783 205.84548596 -63.45385742 204.44604492 C-64.77684802 203.68543361 -66.10387462 202.93181019 -67.43432617 202.18432617 C-76.49672798 196.96136336 -84.05421556 190.82302325 -91.45385742 183.44604492 C-92.88665039 182.17180664 -92.88665039 182.17180664 -94.34838867 180.87182617 C-96.45385742 178.44604492 -96.45385742 178.44604492 -96.54760742 176.37963867 C-95.0831463 173.79068062 -93.27214576 172.37247737 -90.95385742 170.50854492 C-75.38550776 156.87235848 -69.13473658 138.19933432 -65.45385742 118.44604492 C-66.19635742 118.36354492 -66.93885742 118.28104492 -67.70385742 118.19604492 C-71.11403115 117.26599754 -72.26474763 116.20587769 -74.45385742 113.44604492 C-75.28804245 108.84065634 -75.05637332 104.18098954 -75.01635742 99.50854492 C-75.04020508 98.23301758 -75.06405273 96.95749023 -75.08862305 95.64331055 C-75.07223963 85.22892158 -75.07223963 85.22892158 -72.23120117 82.06713867 C-69.21209716 80.3049331 -67.85048636 80.29811744 -64.45385742 80.44604492 C-64.47480469 79.5750415 -64.49575195 78.70403809 -64.51733398 77.80664062 C-64.58636594 74.50949077 -64.63606431 71.21313154 -64.67358398 67.91552734 C-64.69344137 66.50068892 -64.72053709 65.08592962 -64.75561523 63.67138672 C-65.17466235 46.31174388 -60.71309444 31.41970573 -48.67651367 18.64086914 C-34.9182275 4.51833879 -19.27491795 -0.1066469 0 0 Z " fill="#FED2B2" transform="translate(252.453857421875,9.553955078125)"/>
<path d="M0 0 C51.48 0 102.96 0 156 0 C156 42.9 156 85.8 156 130 C110.125 129.625 110.125 129.625 95.75048828 129.39697266 C91.42109721 129.39678974 91.42109721 129.39678974 87.09176636 129.41513062 C85.19403987 129.41439923 83.29618506 129.38661934 81.3991394 129.33578491 C65.76057822 128.94704928 57.23239286 132.68999977 45.79786873 143.35730934 C43.38356893 145.56322553 40.83485634 147.4712256 38.19140625 149.39453125 C37.40572266 149.97654297 36.62003906 150.55855469 35.81054688 151.15820312 C35.06869141 151.70412109 34.32683594 152.25003906 33.5625 152.8125 C32.76263672 153.40869141 31.96277344 154.00488281 31.13867188 154.61914062 C29.98915039 155.46702148 29.98915039 155.46702148 28.81640625 156.33203125 C27.81782593 157.07030151 27.81782593 157.07030151 26.79907227 157.82348633 C25 159 25 159 22 160 C22 150.1 22 140.2 22 130 C14.74 130 7.48 130 0 130 C0 87.1 0 44.2 0 0 Z " fill="#ECEEF0" transform="translate(346,10)"/>
<path d="M0 0 C2.3723607 0.00859462 4.74237261 -0.02048432 7.11450195 -0.05200195 C8.63989187 -0.05361246 10.165286 -0.05303932 11.69067383 -0.05004883 C12.39078079 -0.06128281 13.09088776 -0.07251678 13.81221008 -0.08409119 C18.84380637 -0.01308729 21.65735623 1.32006035 25.54614258 4.44604492 C29.59589533 9.04306156 30.67891033 11.33872855 30.54614258 17.44604492 C31.14040039 17.39963867 31.7346582 17.35323242 32.34692383 17.30541992 C42.48319767 16.86402697 50.72977491 19.94345696 58.47973633 26.47338867 C66.63826065 34.261772 71.59645216 42.928381 71.92256165 54.40408325 C71.94658571 57.98281719 71.88085655 61.55597804 71.79614258 65.13354492 C71.77602866 66.62505715 71.75778661 68.11659585 71.74145508 69.6081543 C71.69788839 73.22134494 71.62913778 76.83351931 71.54614258 80.44604492 C68.90614258 80.44604492 66.26614258 80.44604492 63.54614258 80.44604492 C63.54614258 92.32604492 63.54614258 104.20604492 63.54614258 116.44604492 C61.77828422 113.79425738 60.86873425 111.80667699 59.84692383 108.84057617 C59.52401367 107.93887695 59.20110352 107.03717773 58.8684082 106.1081543 C58.20354699 104.23188251 57.54959327 102.35170415 56.9074707 100.4675293 C53.57765187 91.28609147 48.4337245 85.55774851 40.54614258 79.96557617 C37.23254146 77.44801595 34.40181332 74.46234715 31.54614258 71.44604492 C27.83730224 73.13336349 25.21843297 75.38375813 22.22973633 78.10620117 C18.30366516 81.23066152 13.64415021 80.59782737 8.88989258 80.62182617 C7.12686011 80.6450474 5.36383927 80.66916563 3.60083008 80.6940918 C0.83415197 80.72900487 -1.93210442 80.75843852 -4.69897461 80.77197266 C-20.08824506 80.86189558 -31.75238269 82.23065661 -43.32495117 93.22338867 C-49.55731818 99.77742623 -52.89841932 107.85048038 -55.45385742 116.44604492 C-55.78385742 116.44604492 -56.11385742 116.44604492 -56.45385742 116.44604492 C-56.45385742 104.56604492 -56.45385742 92.68604492 -56.45385742 80.44604492 C-59.09385742 80.44604492 -61.73385742 80.44604492 -64.45385742 80.44604492 C-64.5543072 76.26926581 -64.62605141 72.09316508 -64.67358398 67.91552734 C-64.69344137 66.50068892 -64.72053709 65.08592962 -64.75561523 63.67138672 C-65.17466235 46.31174388 -60.71309444 31.41970573 -48.67651367 18.64086914 C-34.9182275 4.51833879 -19.27491795 -0.1066469 0 0 Z " fill="#6E83B7" transform="translate(252.453857421875,9.553955078125)"/>
<path d="M0 0 C1.381875 0.45375 2.76375 0.9075 4.1875 1.375 C19.98123234 6.04233547 36.22217661 6.84925607 52 2 C53.58084425 1.59434012 55.16393738 1.19725166 56.75 0.8125 C57.8225 0.544375 58.895 0.27625 60 0 C60 4.62 60 9.24 60 14 C61.34964844 14.25652344 62.69929688 14.51304687 64.08984375 14.77734375 C70.96788207 16.15392169 77.75980841 17.8574326 84.5625 19.5625 C85.85739059 19.88228817 87.15231228 20.20195043 88.44726562 20.52148438 C89.66220703 20.82505859 90.87714844 21.12863281 92.12890625 21.44140625 C93.23306885 21.71670166 94.33723145 21.99199707 95.47485352 22.27563477 C98 23 98 23 99 24 C98.45204029 38.24695254 90.22156899 54.17515857 80 64 C64.34110849 78.081936 46.19328433 84.90671008 25.15625 84.3125 C9.55672632 83.43117098 -4.15131459 76.96108294 -16 67 C-16.81726563 66.38253906 -17.63453125 65.76507813 -18.4765625 65.12890625 C-28.90377872 56.33195139 -35.81337099 42.10058595 -39 29 C-39.1875 25.9375 -39.1875 25.9375 -39 24 C-31.46991104 21.3685173 -23.84735891 19.30121501 -16.125 17.3125 C-14.29195312 16.83200195 -14.29195312 16.83200195 -12.421875 16.34179688 C-11.25398438 16.03951172 -10.08609375 15.73722656 -8.8828125 15.42578125 C-7.29557373 15.01453003 -7.29557373 15.01453003 -5.67626953 14.5949707 C-3 14 -3 14 0 14 C0 9.38 0 4.76 0 0 Z " fill="#FED3B3" transform="translate(226,200)"/>
<path d="M0 0 C72.6 0 145.2 0 220 0 C220 9.9 220 19.8 220 30 C147.4 30 74.8 30 0 30 C0 20.1 0 10.2 0 0 Z " fill="#466089" transform="translate(146,472)"/>
<path d="M0 0 C13.86 0 27.72 0 42 0 C42.11314834 13.25680796 42.20480174 26.51329301 42.25906086 39.77047539 C42.28510798 45.92691931 42.32041762 52.08301454 42.37719727 58.23925781 C42.43168997 64.1850335 42.46145726 70.13047465 42.47438622 76.07648087 C42.48359504 78.3402139 42.50157771 80.6039295 42.52865028 82.86751938 C42.56516898 86.04863199 42.56993569 89.22837808 42.56762695 92.40966797 C42.59459152 93.80042793 42.59459152 93.80042793 42.62210083 95.21928406 C42.55887904 103.31736967 39.47279192 108.97026502 35.3125 115.75 C29.1839531 121.7129105 18.74762299 128 10 128 C10 127.34 10 126.68 10 126 C6.7 126 3.4 126 0 126 C0 84.42 0 42.84 0 0 Z " fill="#FFD3B2" transform="translate(356,346)"/>
<path d="M0 0 C13.86 0 27.72 0 42 0 C42 41.58 42 83.16 42 126 C38.7 126 35.4 126 32 126 C32 126.66 32 127.32 32 128 C23.32986455 126.62326772 12.98523993 122.58376393 7 116 C-0.12846305 105.46816148 -0.12846305 105.46816148 -0.12025452 98.72895813 C-0.12162918 97.85817627 -0.12300385 96.98739441 -0.12442017 96.09022522 C-0.12082489 95.13788498 -0.11722961 94.18554474 -0.11352539 93.2043457 C-0.11367142 92.19928986 -0.11381744 91.19423401 -0.1139679 90.15872192 C-0.11327029 86.83105321 -0.10548494 83.50344021 -0.09765625 80.17578125 C-0.09579153 77.8707838 -0.09436788 75.56578595 -0.09336853 73.26078796 C-0.08954759 67.18955392 -0.07972089 61.11834374 -0.06866455 55.04711914 C-0.05844135 48.85368167 -0.05386896 42.66024035 -0.04882812 36.46679688 C-0.03809827 24.31118574 -0.02050486 12.15559858 0 0 Z " fill="#FFD3B2" transform="translate(114,346)"/>
<path d="M0 0 C0.17015625 0.53367188 0.3403125 1.06734375 0.515625 1.6171875 C1.3189872 4.08709894 2.1546596 6.54414039 3 9 C3.2784375 9.82757813 3.556875 10.65515625 3.84375 11.5078125 C8.6596002 24.75140055 18.32770498 33.84976708 30.92578125 39.77734375 C41.49769805 43.98193074 54.18285494 44.71905773 65 41 C66.18529297 40.61521484 66.18529297 40.61521484 67.39453125 40.22265625 C78.80741188 36.1378618 88.03957775 27.97933558 93.6875 17.25 C96.30750253 11.68032576 98.19291296 5.87555676 100 0 C106.36703748 -0.42446917 111.96625075 0.98527058 118 3 C118.33 3.33 118.66 3.66 119 4 C118.45204029 18.24695254 110.22156899 34.17515857 100 44 C84.34110849 58.081936 66.19328433 64.90671008 45.15625 64.3125 C29.55672632 63.43117098 15.84868541 56.96108294 4 47 C3.18273437 46.38253906 2.36546875 45.76507813 1.5234375 45.12890625 C-8.90377872 36.33195139 -15.81337099 22.10058595 -19 9 C-19.1875 5.9375 -19.1875 5.9375 -19 4 C-17.58398286 3.51891725 -16.16715563 3.04021859 -14.75 2.5625 C-13.96109375 2.29566406 -13.1721875 2.02882812 -12.359375 1.75390625 C-8.06271619 0.38096726 -4.5422495 -0.10323294 0 0 Z " fill="#EDEEF0" transform="translate(206,220)"/>
<path d="M0 0 C2.97 0 5.94 0 9 0 C9.20753906 1.11375 9.41507812 2.2275 9.62890625 3.375 C13.65029789 23.76550343 22.09770423 44.82643888 40 57 C39.56802462 61.41457768 36.5769539 63.87846852 33.5625 66.8125 C33.01899902 67.34584961 32.47549805 67.87919922 31.91552734 68.42871094 C22.1660076 77.81037808 5.87643135 90.11674191 -7.84375 91.34375 C-12.58476254 91.15154679 -16.9799084 89.86191685 -21.5 88.5 C-22.32242187 88.26152344 -23.14484375 88.02304688 -23.9921875 87.77734375 C-25.99757382 87.19438261 -27.99920475 86.59852849 -30 86 C-30.24918801 81.87498006 -30.42951206 77.75292401 -30.54931641 73.62207031 C-30.59928901 72.22090307 -30.66730483 70.82024911 -30.75439453 69.42089844 C-31.45894292 57.79999451 -31.45894292 57.79999451 -27.85693359 53.35595703 C-25.32666604 51.33757459 -22.77282384 49.6620822 -20 48 C-7.04244814 37.43796193 -2.19136007 21.9097275 -0.55712891 5.94238281 C-0.36510773 3.96219043 -0.18166065 1.98116971 0 0 Z " fill="#6E83B7" transform="translate(316,128)"/>
<path d="M0 0 C2.97 0 5.94 0 9 0 C9.08636719 1.14855469 9.17273438 2.29710937 9.26171875 3.48046875 C10.89541495 22.49915851 17.22225248 38.28537957 32 51 C32.60207275 51.27384521 33.20414551 51.54769043 33.82446289 51.82983398 C36.16170608 53.00599698 37.42899403 53.88388551 39 56 C39.89317051 61.11762565 39.65826239 66.15046845 39.4375 71.3125 C39.40236379 72.73494981 39.37042876 74.15748253 39.34179688 75.58007812 C39.26489551 79.05511532 39.14424469 82.52703174 39 86 C16.95695492 93.53759334 16.95695492 93.53759334 8.5625 90 C6.33277373 88.73855052 4.14580959 87.39944104 2 86 C0.6770094 85.23938869 -0.6500172 84.48576527 -1.98046875 83.73828125 C-11.04287055 78.51531844 -18.60035814 72.37697833 -26 65 C-26.95519531 64.15050781 -27.91039062 63.30101562 -28.89453125 62.42578125 C-31 60 -31 60 -31.09375 57.93359375 C-29.62928888 55.3446357 -27.81828834 53.92643245 -25.5 52.0625 C-9.93165033 38.42631356 -3.68087916 19.7532894 0 0 Z " fill="#6E83B6" transform="translate(187,128)"/>
<path d="M0 0 C6.33137503 3.40920194 9.991287 6.87671205 12.25 13.75 C13.3665763 20.97052673 11.48001508 26.47931122 7.375 32.5 C2.96507526 37.16933208 -1.70206678 38.84728286 -8 39.0625 C-12.99999635 38.97218808 -16.75133602 37.78260021 -20.75 34.75 C-26.07786568 28.9935886 -28.14508601 24.22037201 -28.01953125 16.37890625 C-27.48942126 11.20841313 -25.62692225 7.48341512 -21.80859375 3.95703125 C-14.84884641 -1.43901595 -8.4687882 -2.8229294 0 0 Z " fill="#466089" transform="translate(263.75,383.25)"/>
<path d="M0 0 C1.6256807 0.30893932 3.25052748 0.6222695 4.875 0.9375 C5.77992188 1.11152344 6.68484375 1.28554688 7.6171875 1.46484375 C10 2 10 2 12 3 C11.21564893 8.91280039 9.51377101 14.53111391 7.875 20.25 C5.33796073 29.18872997 2.88221714 38.14384529 0.5 47.125 C-2.70822305 59.17477543 -6.27683378 71.100234 -10 83 C-14.611983 84.13905625 -17.48270255 83.50576582 -22 82 C-20.95871974 75.2202357 -19.14977844 68.67941018 -17.375 62.0625 C-17.19737122 61.39660858 -17.01974243 60.73071716 -16.83673096 60.04464722 C-14.26232382 50.40769575 -11.49151389 40.84695835 -8.52075195 31.32421875 C-5.31938699 20.97921277 -2.64350908 10.49917847 0 0 Z " fill="#7185B8" transform="translate(429,33)"/>
<path d="M0 0 C1.08539063 0.42152344 2.17078125 0.84304687 3.2890625 1.27734375 C4.73426204 1.83102409 6.17958091 2.38439305 7.625 2.9375 C8.33785156 3.21529297 9.05070313 3.49308594 9.78515625 3.77929688 C24.20128781 9.26800751 40.59503733 8.2259389 54.75 2.375 C56.4825 1.59125 58.215 0.8075 60 0 C60 5.28 60 10.56 60 16 C42.53948319 23.48307863 22.16651243 24.97595449 4.1875 17.875 C2.805625 17.25625 1.42375 16.6375 0 16 C0 10.72 0 5.44 0 0 Z " fill="#FCB98B" transform="translate(226,184)"/>
<path d="M0 0 C13.86 0 27.72 0 42 0 C42 6.6 42 13.2 42 20 C28.14 20 14.28 20 0 20 C0 13.4 0 6.8 0 0 Z " fill="#EDEFF1" transform="translate(356,346)"/>
<path d="M0 0 C13.86 0 27.72 0 42 0 C42 6.6 42 13.2 42 20 C28.14 20 14.28 20 0 20 C0 13.4 0 6.8 0 0 Z " fill="#EDEFF1" transform="translate(114,346)"/>
<path d="M0 0 C3.81684226 1.55500981 6.19195732 4.03595495 9 7 C7.51346494 10.46629835 5.54277649 12.69022036 2.8671875 15.328125 C2.06152344 16.12734375 1.25585938 16.9265625 0.42578125 17.75 C-0.41597656 18.575 -1.25773437 19.4 -2.125 20.25 C-2.97449219 21.09046875 -3.82398438 21.9309375 -4.69921875 22.796875 C-6.79504923 24.86915683 -8.89540713 26.93662393 -11 29 C-9.51346494 32.46629835 -7.54277649 34.69022036 -4.8671875 37.328125 C-3.65869141 38.52695313 -3.65869141 38.52695313 -2.42578125 39.75 C-1.58402344 40.575 -0.74226563 41.4 0.125 42.25 C0.97449219 43.09046875 1.82398438 43.9309375 2.69921875 44.796875 C4.79504923 46.86915683 6.89540713 48.93662393 9 51 C7.26142784 54.76690636 5.09741625 57.21232537 2 60 C1.34 60 0.68 60 0 60 C-1.34204102 58.63671875 -1.34204102 58.63671875 -2.94140625 56.6875 C-7.64135929 51.16015051 -12.78755691 46.10357873 -17.9375 41 C-18.9175531 40.02497614 -19.8973724 39.0497172 -20.87695312 38.07421875 C-23.24902313 35.71383382 -25.6234086 33.35583095 -28 31 C-26.38448553 26.91709903 -23.45360304 24.21566164 -20.37109375 21.2109375 C-19.54654442 20.39419052 -19.54654442 20.39419052 -18.70533752 19.5609436 C-16.95408824 17.82746221 -15.19628312 16.10083449 -13.4375 14.375 C-11.67604189 12.64115848 -9.91606377 10.90587817 -8.15895081 9.16763306 C-7.06658495 8.08752633 -5.97155704 7.01010397 -4.87364197 5.93563843 C-2.08448055 3.23686511 -2.08448055 3.23686511 0 0 Z " fill="#6E83B7" transform="translate(389,45)"/>
<path d="M0 0 C6.74080425 5.52650334 12.8071129 11.69449559 18.9375 17.875 C20.01343727 18.95596274 21.08960731 20.03669383 22.16601562 21.1171875 C24.78003292 23.74212641 27.39088596 26.37018628 30 29 C28.34763349 33.29067546 25.1094793 36.1429553 21.8984375 39.296875 C21.30197418 39.89050842 20.70551086 40.48414185 20.0909729 41.09576416 C18.1903019 42.98526627 16.28278526 44.86768392 14.375 46.75 C13.08287532 48.03209065 11.79120324 49.31463761 10.5 50.59765625 C7.33855521 53.73708432 4.1709539 56.87017801 1 60 C-0.17825358 59.09827532 -1.34231577 58.17798498 -2.5 57.25 C-3.47453125 56.48429687 -3.47453125 56.48429687 -4.46875 55.703125 C-6 54 -6 54 -6 50 C-4.25585938 47.80175781 -4.25585938 47.80175781 -1.84375 45.453125 C-0.55791016 44.18662109 -0.55791016 44.18662109 0.75390625 42.89453125 C1.66011719 42.02183594 2.56632812 41.14914063 3.5 40.25 C4.40621094 39.36183594 5.31242187 38.47367188 6.24609375 37.55859375 C8.48871616 35.36318444 10.74012768 33.17762613 13 31 C11.51346494 27.53370165 9.54277649 25.30977964 6.8671875 22.671875 C6.06152344 21.87265625 5.25585938 21.0734375 4.42578125 20.25 C3.16314453 19.0125 3.16314453 19.0125 1.875 17.75 C0.60076172 16.48929688 0.60076172 16.48929688 -0.69921875 15.203125 C-2.79504923 13.13084317 -4.89540713 11.06337607 -7 9 C-5.27845212 5.23511958 -3.00765886 2.84936103 0 0 Z " fill="#6E83B7" transform="translate(457,45)"/>
</svg>
